<svg width="100px" enable-background="new 0 0 755.6 403.3" version="1.1" viewBox="0 0 755.6 403.3" xml:space="preserve" xmlns="http://www.w3.org/2000/svg">
<style type="text/css">
	.st0{fill:none;}
	.st1{fill:#ffff;}
</style>
	<path class="st0" d="m399.3 227.5c-11.5 3.2-17 14.1-15.3 26.4 1.6 12.1 9 20 21.3 22.2 35.9 6.3 62.3-19.4 54.1-60.7-20.1 3.9-40.5 6.6-60.1 12.1z"/>
	<path class="st0" d="m119.1 182.6c-19.3-1.3-38.8-0.3-60.3-0.3 0 26.5-0.2 51.2 0.3 75.8v0.6c0 1.4-0.5 3.9 0.4 5.1 1.2 1.4 4.4 1 5.5 1h0.4c19.7-0.1 39.6 0.8 58.9-2.2 21.7-3.4 33.2-20.8 31.9-42-1.4-20.9-15.5-36.5-37.1-38z"/>
	<path class="st0" d="m59 125.7c0.1 1.6-0.4 5.8 1 7.5s4.8 0.9 6 1c17.1 0.1 34.5 0.7 51.3-2 19.6-3.2 32-21.7 30.3-40.7-1.8-20.4-15.1-34.3-35.8-35.6-14.5-1-29.1-0.9-43.6 0.1-1.7 0-5.2 0.2-7 2s-1.8 5.2-2 6.9c-1.2 10-0.4 20.2-0.4 30.4-0.1 10.1-0.7 20.3 0.2 30.4z"/>
	<path class="st1" d="m164.1 155.3c7.4-5.4 14.5-9.3 19.9-14.8 5.8-5.9 11.2-12.7 14.8-20.1 23.8-49.2-9-107.4-65-111.9-41.2-3.4-82.9-1.7-124.3-2.7-9.5-0.2-9.4 5.2-9.4 11.9 0.1 94.5 0.2 189-0.1 283.5 0 9 2.4 12.6 11.8 12.4 40.2-0.6 80.4-0.3 120.5-1.2 19.4-0.4 36.7-7.7 52.7-19 38.1-27 48.4-113.2-20.9-138.1zm-105-90.4c0.2-1.7 0.2-5.1 2-6.9s5.4-2 7.1-2.1c14.5-0.9 29.1-1 43.6-0.1 20.7 1.4 34 15.2 35.8 35.6 1.7 19-10.7 37.5-30.3 40.7-16.8 2.7-34.2 2.1-51.3 2-1.2 0-4.6 0.8-6-1-1.4-1.7-0.9-5.9-1-7.5-0.9-10.1-0.3-20.2-0.3-30.4 0-10.1-0.8-20.3 0.4-30.3zm65.3 197.8c-19.3 3-39.3 2.1-58.9 2.2h-0.4c-1.1 0-4.2 0.5-5.5-1-1-1.1-0.4-3.7-0.4-5.1v-0.6c-0.4-24.7-0.3-49.3-0.3-75.8 21.5 0 41-1 60.3 0.3 21.6 1.5 35.7 17 37.1 38 1.3 21.1-10.2 38.6-31.9 42z"/>
	<path class="st1" d="m300.2 0c-20.9-0.1-35.6 14.5-36 35.7-0.4 19.9 12.6 32.8 33.2 33 20.7 0.2 35.9-14.1 36.1-34 0.1-20.5-13.4-34.6-33.3-34.7z"/>
	<path class="st1" d="m668.3 190.2c28.2-29.5 55.7-58.3 85.5-89.6-23.5 0-43.4-0.7-63.1 0.4-3.4 0.2-6.8 0.5-12.5 0.6l-4 3.8c-0.9 1.4-2 2.8-2.8 3.6-20 20-39 41-58.5 61.5-2.1 2.2-4.9 3.9-9.9 7.8v-177.5h-55.9v310.6h56.2c1.5-17.2 0.5-53.1 1.3-54.4 1-1.5 13.3-14.6 24.9-23.6 1.6 2 3.9 4.6 5.9 7.4 14.8 21 29.4 42 44.3 62.9 2.4 3.4 6.1 8.1 9.3 8.2 21.3 0.7 42.7 0.4 66.4 0.4-30-42.3-58.4-82.1-87.1-122.1z"/>
	<path class="st1" d="m230.7 317.5c-4.3 31.9-10.5 37.1-43 35.3-1.2-0.1-2.4 0.7-4.4 1.2-2 14.6-4.1 29.2-6.1 43.4 3.5 1.5 6.4 2.7 9 3.8 4.3 0.7 8.6 1.3 12.4 1.7 2.9 0.3 5.6 0.5 7.6 0.4 1 0 2.5-0.2 4.3-0.4 7.4-1 19.6-3.4 22.7-4.1 32.8-10.8 48.2-36 52.8-70.8 7.3-54.7 15.4-109.2 22.9-163.9 2.9-20.7 5.3-41.6 7.9-62.7h-56.6c-9.7 72.7-19.7 144.4-29.5 216.1z"/>
	<path class="st1" d="m516.3 172.1c-0.5-38.5-22.1-66.3-59.6-73.8-17.5-3.5-36.2-4.3-53.8-2.3-38.6 4.3-67.2 32.5-70.7 67.1 7.9 1.9 16 3.9 24.1 5.6 8.5 1.8 17.1 3.4 25.5 5 11.5-32.3 40.8-44.6 67.2-28.8 9.6 5.8 14.5 14.3 12.9 25.4-1.4 10.5-10.3 12.1-18.7 13.7-3.5 0.7-7 1-10.5 1.6-20.4 3.5-41.2 5.5-61 11.1-23.2 6.5-38.7 22.5-42.6 47.4-3.8 23.8 3.6 43.6 22.4 58.9 27.9 22.6 78.1 20.6 104.1-4 2.8-2.6 5.7-5 9.7-8.6 0.2 1 0.4 1.9 0.6 2.9v19.1h3.9c0 0.1 0 0.2 0.1 0.3h46.6v-39.9c-0.1-33.5 0.2-67.1-0.2-100.7zm-111.1 104c-12.3-2.1-19.7-10-21.3-22.2-1.6-12.3 3.8-23.2 15.3-26.4 19.6-5.5 40.1-8.2 60.1-12.1 8.2 41.3-18.2 67-54.1 60.7z"/>
</svg>
